<svg viewBox="0 0 500 500" xmlns="http://www.w3.org/2000/svg"><defs><style>.cls-2{fill:#231815}</style></defs><g data-name="图层 1" id="图层_1"><path d="M325.57 313a51.75 51.75 0 0010.34-102.46 73.71 73.71 0 00-131.81-19A62.24 62.24 0 10184.92 313" fill="#dcdddd"/><path class="cls-2" d="M325.57 320.54a59.9 59.9 0 0058.79-52.34c3.7-30-17-58.47-46.46-64.86l5.24 5.24c-9.07-28.39-33.17-50.81-62.81-56a82.4 82.4 0 00-82.71 35.25l8.47-3.45c-31.4-9.69-66.35 3.77-82.26 32.77-15.16 27.65-9.62 63.37 13.66 84.79a70.91 70.91 0 0047.42 18.61c9.66.11 9.66-14.89 0-15-24.5-.27-46.36-16.6-52.84-40.4a55.22 55.22 0 0125.59-61.82c13.58-7.83 29.54-9.09 44.43-4.49 3.34 1 6.63-.74 8.47-3.45 14.64-21.54 41.42-33.14 67.15-28.1a67.05 67.05 0 0150.95 45.29 7.54 7.54 0 005.24 5.24c22.53 4.89 38.5 25.75 35.61 49-2.74 22.09-22 38.41-44 38.7-9.64.13-9.67 15.13 0 15z"/><path class="cls-2" d="M211.08 320.54h89.27c9.65 0 9.67-15 0-15h-89.27c-9.65 0-9.67 15 0 15zm96.13-43.3H195.82c-9.65 0-9.67 15 0 15h111.39c9.65 0 9.67-15 0-15zM329 333.83H228.82c-9.65 0-9.67 15 0 15H329c9.65 0 9.67-15 0-15z"/></g></svg>