<svg data-name="Layer 1" id="Layer_1" viewBox="0 0 64 64" xmlns="http://www.w3.org/2000/svg"><defs><style>.cls-2{fill:#002849}</style></defs><path d="M53.16 10.71A29.91 29.91 0 0034.65 2a23.47 23.47 0 011.76 1.59 23.19 23.19 0 01-32.8 32.8A23.47 23.47 0 012 34.67a30 30 0 1051.14-24z" fill="#fedb41"/><path class="cls-2" d="M57.64 18.44a1 1 0 101.77-.93A31.07 31.07 0 0034.74 1 1 1 0 0034 2.81a22.19 22.19 0 01-13.16 39.4 1 1 0 000 2A24.19 24.19 0 0037.66 3.49a29.07 29.07 0 0120 15z"/><path class="cls-2" d="M60.17 21.67a1 1 0 00-.64 1.26A29 29 0 113.47 37.68a24.09 24.09 0 0011.35 6 1 1 0 00.43-2 22.12 22.12 0 01-10.93-6A22.45 22.45 0 012.8 34a1 1 0 00-1.8.76 31 31 0 1060.43-12.45 1 1 0 00-1.26-.64z"/></svg>