<svg viewBox="0 0 512 512" xmlns="http://www.w3.org/2000/svg"><path d="M380.14 190.14a105.1 105.1 0 00-7.34-23.33 64.4 64.4 0 00-12.66 3.33 105.64 105.64 0 00-19.9-44.46A106 106 0 00170 210c0 2.72.11 5.41.31 8.08a50 50 0 00-58.23 71.83A49.78 49.78 0 00136 296h247a65 65 0 0054.85-99.85 65 65 0 00-57.71-6z" fill="#b6c4cf"/><path fill="none" stroke="#02005c" stroke-linecap="round" stroke-linejoin="round" stroke-width="20" d="M181 256h169.41M157.5 150.81c-.07.19-.15.37-.22.56s-.15.36-.22.55"/><path d="M447.87 234.41c1.86-33.07-22.91-63.16-55.72-67.76a65.39 65.39 0 00-32 3.5c-6.45-34.08-30-62.91-61.32-77.47C255 71 198 88 169.85 128.24m257.8 150a64.67 64.67 0 0013.64-18.62M150.83 176.7a107.71 107.71 0 00-.53 21.39A50.48 50.48 0 0091 224.22 48.32 48.32 0 0091 268c3 5 6 11 11 15a83.42 83.42 0 0012 8 120.9 120.9 0 0018 5q129 1.5 258 0c5 0 11-3 15.92-4.16" fill="none" stroke="#02005c" stroke-linecap="round" stroke-miterlimit="10" stroke-width="20"/><path d="M230.31 256l-18.46 118.4h44.41L230.31 469l81.57-127.8h-41.12l41.12-85.2z" fill="#fff"/><path fill="#fc0" d="M270.76 341.2l31.46-65.2h-51.9l-15.35 98.4h21.28l-5.48 20h25.49l-1.26 4.58 24.11-37.78h-8.34l9.65-20h-29.66z"/><path fill="none" stroke="#02005c" stroke-linecap="round" stroke-linejoin="round" stroke-width="20" d="M218.01 334.86l-.09.58m-3.79 24.32l-2.29 14.64h44.41l-25.94 94.61 81.57-127.81h-41.12l41.12-85.2h-81.57l-8.33 53.42"/></svg>