<svg viewBox="0 0 500 500" xmlns="http://www.w3.org/2000/svg"><g data-name="图层 1"><circle cx="250" cy="250" r="84.8" fill="#f8b62d"/><path d="M327.3 250c-.26 31.93-20.27 61.69-50.61 72.59a78.28 78.28 0 01-86.62-23.7c-20.52-24.83-22.88-61.14-6.38-88.66s49.76-42.55 81.4-36.08A78.17 78.17 0 01327.3 250c.08 9.65 15.08 9.67 15 0a93.46 93.46 0 00-61-86.83c-36.08-13.29-78.52-1.52-102.67 28.34s-27.79 72.65-7.9 105.83c20 33.39 59.57 50.62 97.68 43.11C311.16 332 342 293.16 342.3 250c.08-9.65-14.92-9.66-15 0zm-69.8-118.61v-32c0-9.65-15-9.67-15 0v32c0 9.65 15 9.67 15 0zm-66.81 15.89l-15.98-27.69m22.46 23.9l-16-27.69c-4.83-8.36-17.79-.81-13 7.57l16 27.69c4.83 8.36 17.79.81 13-7.57zm-49.89 47.2l-27.69-15.98m31.47 9.51l-27.69-16c-8.38-4.84-15.94 8.12-7.57 13l27.69 16c8.38 4.84 15.94-8.12 7.57-13zM131.39 250H99.42m31.97-7.5h-32c-9.65 0-9.67 15 0 15h32c9.65 0 9.67-15 0-15zm15.89 66.81l-27.69 15.98m23.9-22.46l-27.69 16c-8.36 4.83-.81 17.79 7.57 13l27.69-16c8.36-4.83.81-17.79-7.57-13zm47.2 49.89l-15.98 27.69m9.51-31.47l-16 27.69c-4.84 8.38 8.12 15.94 13 7.57l16-27.69c4.84-8.38-8.12-15.94-13-7.57zM250 368.61v31.97m-7.5-31.97v32c0 9.65 15 9.67 15 0v-32c0-9.65-15-9.67-15 0zm66.81-15.89l15.98 27.69m-22.46-23.9l16 27.69c4.83 8.36 17.79.81 13-7.57l-16-27.69c-4.83-8.36-17.79-.81-13 7.57zm49.89-47.2l27.69 15.98m-31.47-9.51l27.69 16c8.38 4.84 15.94-8.12 7.57-13l-27.69-16c-8.38-4.84-15.94 8.12-7.57 13zM368.61 250h31.97m-31.97 7.5h32c9.65 0 9.67-15 0-15h-32c-9.65 0-9.67 15 0 15zm-15.89-66.81l27.69-15.98m-23.9 22.46l27.69-16c8.36-4.83.81-17.79-7.57-13l-27.69 16c-8.36 4.83-.81 17.79 7.57 13zm-47.2-49.89l15.98-27.69m-9.51 31.47l16-27.69c4.84-8.38-8.12-15.94-13-7.57l-16 27.69c-4.84 8.38 8.12 15.94 13 7.57z" fill="#231815"/></g></svg>